<svg width="100" height="100" viewBox="0 0 100 100" fill="none" xmlns="http://www.w3.org/2000/svg">
<path d="M50.0001 3.33333L50.9158 0.128253C50.3173 -0.0427511 49.6829 -0.0427511 49.0844 0.128253L50.0001 3.33333ZM3.33351 16.6667L2.41777 13.4616C0.854024 13.9084 -0.15903 15.4184 0.0205663 17.0348L3.33351 16.6667ZM10.0002 76.6667L6.68723 77.0347C6.8121 78.1587 7.4981 79.1427 8.50943 79.648L10.0002 76.6667ZM50.0001 96.6667L48.5094 99.648C49.4478 100.117 50.5524 100.117 51.4908 99.648L50.0001 96.6667ZM90 76.6667L91.4907 79.648C92.502 79.1427 93.188 78.1587 93.3127 77.0347L90 76.6667ZM96.6667 16.6667L99.9793 17.0348C100.159 15.4184 99.146 13.9084 97.5827 13.4616L96.6667 16.6667ZM50.0001 20L53.054 18.6639L50.0001 11.6837L46.9462 18.6639L50.0001 20ZM49.0844 0.128253L2.41777 13.4616L4.24925 19.8717L50.9158 6.53841L49.0844 0.128253ZM0.0205663 17.0348L6.68723 77.0347L13.3131 76.2987L6.64645 16.2985L0.0205663 17.0348ZM8.50943 79.648L48.5094 99.648L51.4908 93.6853L11.4909 73.6853L8.50943 79.648ZM51.4908 99.648L91.4907 79.648L88.5094 73.6853L48.5094 93.6853L51.4908 99.648ZM93.3127 77.0347L99.9793 17.0348L93.354 16.2985L86.6874 76.2987L93.3127 77.0347ZM97.5827 13.4616L50.9158 0.128253L49.0844 6.53841L95.7507 19.8717L97.5827 13.4616ZM29.7207 74.6693L53.054 21.3361L46.9462 18.6639L23.6129 71.9973L29.7207 74.6693ZM46.9462 21.3361L70.2794 74.6693L76.3874 71.9973L53.054 18.6639L46.9462 21.3361ZM33.3335 60H66.6667V53.3333H33.3335V60Z" fill="currentcolor"/>
</svg>
